<svg xmlns="http://www.w3.org/2000/svg" viewBox="0 0 100 100"><g fill="none" stroke="#ff735c" stroke-width="6.5" stroke-linecap="round"><path d="M41 36 C 37 24, 31 17, 25 14"/><path d="M59 35 C 63 23, 69 16, 76 13"/></g><g fill="#ff735c"><ellipse cx="22" cy="12.5" rx="8.5" ry="6.2" transform="rotate(-24 22 12.5)"/><ellipse cx="79" cy="11.5" rx="8.5" ry="6.2" transform="rotate(22 79 11.5)"/><path d="M50 30 C 76 30 91 46 91 64 C 91 83 74 95 50 95 C 26 95 9 83 9 64 C 9 46 24 30 50 30 Z"/></g><ellipse cx="38.5" cy="62" rx="12.5" ry="16" fill="#fdfbf9"/><ellipse cx="62" cy="60" rx="12.5" ry="16" fill="#fdfbf9"/><ellipse cx="42" cy="64" rx="5.6" ry="8.2" fill="#151515"/><ellipse cx="65.5" cy="62" rx="5.6" ry="8.2" fill="#151515"/></svg>
